<svg width="51" height="51" viewBox="0 0 51 51" fill="none" xmlns="http://www.w3.org/2000/svg">
<path d="M38.25 21.675C38.25 25.3327 37.0627 28.7114 35.0625 31.4527L45.1509 41.5491C46.147 42.5452 46.147 44.1628 45.1509 45.1589C44.1549 46.155 42.5372 46.155 41.5411 45.1589L31.4527 35.0625C28.7114 37.0627 25.3327 38.25 21.675 38.25C12.5189 38.25 5.10001 30.8311 5.10001 21.675C5.10001 12.5189 12.5189 5.10001 21.675 5.10001C30.8311 5.10001 38.25 12.5189 38.25 21.675ZM21.675 33.15C28.0102 33.15 33.15 28.0102 33.15 21.675C33.15 15.3398 28.0102 10.2 21.675 10.2C15.3399 10.2 10.2 15.3398 10.2 21.675C10.2 28.0102 15.3399 33.15 21.675 33.15Z" fill="black"/>
</svg>
