<svg width="104" height="104" viewBox="0 0 104 104" fill="none" xmlns="http://www.w3.org/2000/svg">
<path d="M85.2312 21.7425C85.1987 21.6937 85.1662 21.645 85.1012 21.6287C78.91 18.785 72.3612 16.7537 65.65 15.6C65.585 15.5837 65.52 15.6 65.4712 15.6162C65.4225 15.6325 65.3737 15.6812 65.3412 15.7462C64.4475 17.355 63.635 19.0287 62.92 20.7187C55.6725 19.6137 48.3112 19.6137 41.08 20.7187C40.3487 19.0125 39.5362 17.355 38.6262 15.7462C38.5937 15.6975 38.545 15.6487 38.4962 15.6162C38.4475 15.5837 38.3825 15.5837 38.3175 15.5837C31.6062 16.7375 25.0575 18.7687 18.8662 21.6125C18.8175 21.6287 18.7687 21.6775 18.7362 21.7262C6.35374 40.2187 2.95749 58.2725 4.61499 76.0825C4.61499 76.1312 4.63124 76.1637 4.64749 76.2125C4.66374 76.2612 4.69624 76.2775 4.72874 76.31C11.9437 81.6562 20.0037 85.735 28.5837 88.3675C28.6487 88.3837 28.7137 88.3837 28.7625 88.3675C28.8112 88.3512 28.8762 88.3025 28.9087 88.2537C30.745 85.7512 32.3862 83.0862 33.7837 80.3237C33.8 80.2912 33.8162 80.2425 33.8162 80.1937C33.8162 80.145 33.8162 80.1125 33.8 80.0637C33.7837 80.015 33.7675 79.9825 33.735 79.9662C33.7025 79.95 33.67 79.9175 33.6212 79.9012C31.0537 78.91 28.5512 77.7237 26.1625 76.3425C26.1137 76.31 26.0812 76.2775 26.0487 76.245C26.0162 76.2125 26 76.1475 26 76.0987C26 76.05 26 76.0012 26.0325 75.9525C26.065 75.9037 26.0812 75.8712 26.13 75.8387C26.6337 75.465 27.1375 75.075 27.6087 74.685C27.6575 74.6525 27.7062 74.62 27.755 74.62C27.8037 74.62 27.8687 74.62 27.9175 74.6362C43.55 81.77 60.4825 81.77 75.9362 74.6362C75.985 74.62 76.05 74.6037 76.0987 74.6037C76.1475 74.6037 76.2125 74.6362 76.245 74.6687C76.7162 75.0587 77.22 75.465 77.7237 75.8387C77.7562 75.8712 77.7887 75.9037 77.8212 75.9525C77.8537 76.0012 77.8537 76.05 77.8537 76.0987C77.8537 76.1475 77.8375 76.1962 77.805 76.245C77.7725 76.2937 77.74 76.3262 77.7075 76.3425C75.3187 77.74 72.8325 78.9262 70.2487 79.885C70.2162 79.9012 70.1675 79.9175 70.135 79.95C70.1025 79.9825 70.0862 80.015 70.07 80.0637C70.0537 80.1125 70.0537 80.145 70.0537 80.1937C70.0537 80.2425 70.07 80.275 70.0862 80.3237C71.5162 83.0862 73.1412 85.735 74.9612 88.2537C74.9937 88.3025 75.0587 88.3512 75.1075 88.3675C75.1562 88.3837 75.2375 88.3837 75.2862 88.3675C83.8825 85.735 91.9587 81.6562 99.19 76.31C99.2225 76.2775 99.255 76.245 99.2712 76.2125C99.2875 76.18 99.3037 76.1312 99.3037 76.0825C101.302 55.4775 95.9725 37.5862 85.1825 21.7262L85.2312 21.7425ZM36.1562 65.2437C31.4437 65.2437 27.5762 60.9212 27.5762 55.6237C27.5762 50.3262 31.3787 46.0037 36.1562 46.0037C40.9825 46.0037 44.8175 50.3587 44.7362 55.6237C44.7362 60.9375 40.9337 65.2437 36.1562 65.2437ZM67.9087 65.2437C63.1962 65.2437 59.3287 60.9212 59.3287 55.6237C59.3287 50.3262 63.1312 46.0037 67.9087 46.0037C72.735 46.0037 76.57 50.3587 76.4887 55.6237C76.4887 60.9375 72.7187 65.2437 67.9087 65.2437Z" fill="black"/>
</svg>
