<svg width="104" height="104" viewBox="0 0 104 104" fill="none" xmlns="http://www.w3.org/2000/svg">
<path d="M38.6588 74.9775C38.6588 75.3025 38.285 75.5625 37.8138 75.5625C37.2775 75.6113 36.9038 75.3513 36.9038 74.9775C36.9038 74.6525 37.2775 74.3925 37.7488 74.3925C38.2363 74.3438 38.6588 74.6038 38.6588 74.9775ZM33.605 74.2463C33.4913 74.5713 33.8163 74.945 34.3038 75.0425C34.7263 75.205 35.2138 75.0425 35.3113 74.7175C35.4088 74.3925 35.1 74.0188 34.6125 73.8725C34.19 73.7588 33.7188 73.9213 33.605 74.2463ZM40.7875 73.97C40.3163 74.0838 39.9913 74.3925 40.04 74.7663C40.0888 75.0913 40.5113 75.3025 40.9988 75.1888C41.47 75.075 41.795 74.7663 41.7463 74.4413C41.6975 74.1325 41.2588 73.9213 40.7875 73.97ZM51.48 11.7C28.9413 11.7 11.7 28.8113 11.7 51.35C11.7 69.3713 23.0425 84.7925 39.2438 90.22C41.3238 90.5938 42.055 89.31 42.055 88.2538C42.055 87.2463 42.0063 81.6888 42.0063 78.2763C42.0063 78.2763 30.6313 80.7138 28.2425 73.4338C28.2425 73.4338 26.39 68.705 23.725 67.4863C23.725 67.4863 20.0038 64.935 23.985 64.9838C23.985 64.9838 28.0313 65.3088 30.2575 69.1763C33.8163 75.4488 39.78 73.645 42.1038 72.5725C42.4775 69.9725 43.5338 68.1688 44.7038 67.0963C35.62 66.0888 26.455 64.7725 26.455 49.14C26.455 44.6713 27.69 42.4288 30.29 39.5688C29.8675 38.5125 28.4863 34.1575 30.7125 28.535C34.1088 27.4788 41.925 32.9225 41.925 32.9225C45.175 32.0125 48.6688 31.5413 52.13 31.5413C55.5913 31.5413 59.085 32.0125 62.335 32.9225C62.335 32.9225 70.1513 27.4625 73.5475 28.535C75.7738 34.1738 74.3925 38.5125 73.97 39.5688C76.57 42.445 78.1625 44.6875 78.1625 49.14C78.1625 64.8213 68.5913 66.0725 59.5075 67.0963C61.0025 68.38 62.27 70.8175 62.27 74.6363C62.27 80.1125 62.2213 86.8888 62.2213 88.2213C62.2213 89.2775 62.9688 90.5613 65.0325 90.1875C81.2825 84.7925 92.3 69.3713 92.3 51.35C92.3 28.8113 74.0188 11.7 51.48 11.7ZM27.495 67.7463C27.2838 67.9088 27.3325 68.2825 27.6088 68.5913C27.8688 68.8513 28.2425 68.965 28.4538 68.7538C28.665 68.5913 28.6163 68.2175 28.34 67.9088C28.08 67.6488 27.7063 67.535 27.495 67.7463ZM25.74 66.43C25.6263 66.6413 25.7888 66.9013 26.1138 67.0638C26.3738 67.2263 26.6988 67.1775 26.8125 66.95C26.9263 66.7388 26.7638 66.4788 26.4388 66.3163C26.1138 66.2188 25.8538 66.2675 25.74 66.43ZM31.005 72.215C30.745 72.4263 30.8425 72.9138 31.2163 73.2225C31.59 73.5963 32.0613 73.645 32.2725 73.385C32.4838 73.1738 32.3863 72.6863 32.0613 72.3775C31.7038 72.0038 31.2163 71.955 31.005 72.215ZM29.1525 69.8263C28.8925 69.9888 28.8925 70.4113 29.1525 70.785C29.4125 71.1588 29.8513 71.3213 30.0625 71.1588C30.3225 70.9475 30.3225 70.525 30.0625 70.1513C29.835 69.7775 29.4125 69.615 29.1525 69.8263Z" fill="black"/>
</svg>
